<svg width="20" height="20" viewBox="0 0 20 20" fill="none" xmlns="http://www.w3.org/2000/svg">
<g clip-path="url(#clip0_524_7925)">
<path d="M4.16667 5.83333C4.16667 6.71739 4.51786 7.56523 5.14298 8.19036C5.7681 8.81548 6.61595 9.16667 7.50001 9.16667C8.38406 9.16667 9.23191 8.81548 9.85703 8.19036C10.4821 7.56523 10.8333 6.71739 10.8333 5.83333C10.8333 4.94928 10.4821 4.10143 9.85703 3.47631C9.23191 2.85119 8.38406 2.5 7.50001 2.5C6.61595 2.5 5.7681 2.85119 5.14298 3.47631C4.51786 4.10143 4.16667 4.94928 4.16667 5.83333Z" stroke="#BBBBBB" stroke-width="1.75" stroke-linecap="round" stroke-linejoin="round"/>
<path d="M2.5 17.5V15.8333C2.5 14.9493 2.85119 14.1014 3.47631 13.4763C4.10143 12.8512 4.94928 12.5 5.83333 12.5H9.16667C9.96667 12.5 10.7 12.7817 11.275 13.2508" stroke="#BBBBBB" stroke-width="1.75" stroke-linecap="round" stroke-linejoin="round"/>
<path d="M13.3333 2.60828C14.0503 2.79186 14.6859 3.20886 15.1397 3.79354C15.5935 4.37821 15.8399 5.0973 15.8399 5.83744C15.8399 6.57759 15.5935 7.29668 15.1397 7.88135C14.6859 8.46603 14.0503 8.88303 13.3333 9.06661" stroke="#BBBBBB" stroke-width="1.75" stroke-linecap="round" stroke-linejoin="round"/>
<path d="M13.3333 15.8334H18.3333" stroke="#BBBBBB" stroke-width="1.75" stroke-linecap="round" stroke-linejoin="round"/>
<path d="M15.8333 13.3334V18.3334" stroke="#BBBBBB" stroke-width="1.75" stroke-linecap="round" stroke-linejoin="round"/>
</g>
<defs>
<clipPath id="clip0_524_7925">
<rect width="20" height="20" fill="white"/>
</clipPath>
</defs>
</svg>
