<svg width="10" height="16" viewBox="0 0 10 16" fill="none" xmlns="http://www.w3.org/2000/svg">
<path d="M8.8632 1.03705C8.77352 0.947146 8.66698 0.875813 8.54969 0.827142C8.43239 0.778471 8.30665 0.753418 8.17966 0.753418C8.05267 0.753418 7.92693 0.778471 7.80964 0.827142C7.69234 0.875813 7.58581 0.947146 7.49612 1.03705L1.07783 7.45535C1.00623 7.5268 0.949425 7.61167 0.910667 7.70511C0.871909 7.79854 0.851959 7.8987 0.851959 7.99986C0.851959 8.10101 0.871909 8.20117 0.910667 8.29461C0.949425 8.38804 1.00623 8.47292 1.07783 8.54437L7.49612 14.9627C7.87458 15.3411 8.48474 15.3411 8.8632 14.9627C9.24165 14.5842 9.24165 13.974 8.8632 13.5956L3.27133 7.996L8.87092 2.3964C9.24165 2.02567 9.24165 1.40779 8.8632 1.03705Z" fill="#E8F1F2"/>
</svg>
