<svg width="222" height="51" viewBox="0 0 222 51" fill="none" xmlns="http://www.w3.org/2000/svg">
<path d="M28.374 30.4842C26.2061 38.1093 19.27 39.5795 15.4223 39.5795C-4.89925 39.5795 -5.17041 6.30225 16.2358 6.30225C20.3004 6.30225 27.345 7.99049 27.345 13.3278C27.345 15.9426 25.5567 17.1948 23.8227 17.1948C22.3056 17.1948 20.8956 16.2151 20.8956 14.3634C20.8956 13.1112 21.8717 12.0756 21.8717 10.9869C21.926 8.31753 18.7833 7.39236 16.7239 7.39236C1.76709 7.39236 5.01821 36.7481 18.6749 36.7481C22.631 36.7481 26.4787 33.9166 27.345 30.1586L28.374 30.4856V30.4842Z" fill="#E8F1F2"/>
<path d="M50.9704 19.9181C50.9704 16.16 49.2907 14.0902 45.8226 14.0902C43.492 14.0902 41.0544 15.3424 38.8865 17.1942V38.4888H42.5715V39.5775H28.6993V38.4888H32.3843V2.5436H28.6993V1.45492C30.5418 1.45492 35.31 1.45492 38.3456 0.52832H38.888V15.833C41.3256 13.9267 45.3359 11.8024 48.9124 11.8024C55.6316 11.8024 57.4741 15.615 57.4741 21.4973V38.4902H61.1591V39.5789H47.2869V38.4902H50.9719V19.9181H50.9704Z" fill="#E8F1F2"/>
<path d="M79.15 19.2638C79.15 15.0697 76.5482 13.436 74.3275 13.436C72.4308 13.436 70.2629 14.2535 70.2629 16.4854C70.2629 17.5741 71.1307 18.5007 71.1307 19.7529C71.1307 21.7682 69.722 22.6934 68.2049 22.6934C66.6879 22.6934 65.0081 21.6592 65.0081 19.5894C65.0081 15.2863 72.2153 11.8008 77.0934 11.8008C81.9715 11.8008 85.7635 13.9251 85.8177 19.1533C85.872 25.9063 79.6395 25.5793 74.9255 26.1789C71.349 26.6149 68.2606 27.1585 68.2606 30.6985C68.2606 33.3679 69.8319 35.1652 72.6492 35.1652C79.0986 35.1107 80.2361 30.3729 83.921 30.3729C84.8416 30.3729 85.655 30.7 85.655 31.7887V34.2945C85.655 36.6368 85.655 38.4886 88.0927 38.4886H89.1773V39.5773C87.9842 39.6863 85.2754 39.7408 84.0837 39.7408C80.1818 39.7408 79.2613 38.4886 79.1528 34.131C76.5511 35.9827 73.6796 40.1768 68.9642 40.1768C64.8454 40.1768 61.8112 37.2909 61.8112 33.1513C61.8112 22.5313 79.1528 29.1752 79.1528 19.2638H79.15Z" fill="#E8F1F2"/>
<path d="M109.335 11.802C124.509 11.802 123.316 40.1235 106.572 40.1235C104.404 40.1235 101.587 38.8168 99.7443 37.2376V49.3824H103.429V50.471H89.5571V49.3824H93.2421V13.4357H89.5571V12.347C91.3996 12.347 96.1678 12.347 99.2034 11.4219H99.7457V15.8885C103.648 13.2736 106.519 11.8034 109.338 11.8034L109.335 11.802ZM99.7429 35.8749C101.26 37.1816 103.102 38.2718 105.108 38.2718C116 38.2718 115.946 15.3965 104.999 15.3965C103.102 15.3965 101.314 16.1051 99.7429 17.0847V35.8749Z" fill="#E8F1F2"/>
<path d="M120.822 38.4902H124.507V2.5436H120.822V1.45492C122.665 1.45492 127.433 1.45492 130.468 0.52832H131.011V38.4902H134.696V39.5789H120.824V38.4902H120.822Z" fill="#E8F1F2"/>
<path d="M160.328 31.4631C158.323 37.0729 152.958 40.1223 148.298 40.1223C131.716 40.1223 130.795 11.8008 148.678 11.8008C154.639 11.8008 160.809 16.0336 160.863 21.4799H142.492C141.247 28.0694 144.181 35.2756 152.742 35.2756C155.505 35.2756 158.161 33.9144 159.733 31.1905L160.329 31.4631H160.328ZM154.683 20.3912C154.412 17.0692 152.524 12.8909 148.731 12.8909C145.263 12.8909 143.683 17.1237 142.762 20.3912H154.683Z" fill="#E8F1F2"/>
<path d="M178.753 19.2638C178.753 15.0697 176.152 13.436 173.93 13.436C172.034 13.436 169.866 14.2535 169.866 16.4854C169.866 17.5741 170.732 18.5007 170.732 19.7529C170.732 21.7682 169.323 22.6934 167.806 22.6934C166.289 22.6934 164.609 21.6592 164.609 19.5894C164.609 15.2863 171.817 11.8008 176.693 11.8008C181.57 11.8008 185.363 13.9251 185.418 19.1533C185.472 25.9063 179.239 25.5793 174.525 26.1789C170.949 26.6149 167.861 27.1585 167.861 30.6985C167.861 33.3679 169.432 35.1652 172.249 35.1652C178.697 35.1107 179.836 30.3729 183.521 30.3729C184.441 30.3729 185.255 30.7 185.255 31.7887V34.2945C185.255 36.6368 185.255 38.4886 187.693 38.4886H188.777V39.5773C187.584 39.6863 184.875 39.7408 183.684 39.7408C179.782 39.7408 178.86 38.4886 178.751 34.131C176.151 35.9827 173.278 40.1768 168.564 40.1768C164.445 40.1768 161.411 37.2909 161.411 33.1513C161.411 22.5313 178.753 29.1752 178.753 19.2638Z" fill="#E8F1F2"/>
<path d="M221.618 38.4898V39.5785H207.746V38.4898H211.431V19.9176C211.431 16.1596 209.751 14.0898 206.283 14.0898C203.952 14.0898 201.513 15.342 199.347 17.1938V38.4883H203.032V39.577H189.16V38.4883H192.845V13.4357H189.16V12.347C191.002 12.347 195.77 12.347 198.806 11.4219H199.348V15.834C201.786 13.9277 205.796 11.8034 209.373 11.8034C216.092 11.8034 217.934 15.616 217.934 21.4983V38.4912H221.619L221.618 38.4898Z" fill="#E8F1F2"/>
</svg>
