<svg width="24" height="24" viewBox="0 0 24 24" fill="none" xmlns="http://www.w3.org/2000/svg">
<mask id="path-1-inside-1_1181_1528" fill="white">
<path d="M19 3.99805H17.899C17.434 1.71905 15.414 -0.00195312 13 -0.00195312H5C2.243 -0.00195312 0 2.24105 0 4.99805V17.852C0 18.646 0.435 19.372 1.134 19.746C1.452 19.917 1.801 20.001 2.149 20.001C2.565 20.001 2.98 19.88 3.339 19.641L6.289 17.674C6.98 19.609 8.83 20.998 11 20.998H16.697L20.661 23.641C21.021 23.881 21.435 24.002 21.851 24.002C22.199 24.002 22.547 23.917 22.866 23.746C23.566 23.372 24 22.646 24 21.852V8.99805C24 6.24105 21.757 3.99805 19 3.99805ZM2.23 17.977C2.211 17.989 2.155 18.025 2.078 17.984C1.999 17.942 1.999 17.875 1.999 17.853V4.99805C1.999 3.34405 3.345 1.99805 4.999 1.99805H12.999C14.653 1.99805 15.999 3.34405 15.999 4.99805V11.998C15.999 13.652 14.653 14.998 12.999 14.998H6.999C6.672 14.998 6.458 15.157 6.434 15.173L2.23 17.977ZM22 21.853C22 21.874 22 21.942 21.921 21.984C21.842 22.025 21.788 21.989 21.77 21.977L17.555 19.166C17.391 19.057 17.198 18.998 17 18.998H11C9.696 18.998 8.585 18.162 8.172 16.998H13C15.757 16.998 18 14.755 18 11.998V5.99805H19C20.654 5.99805 22 7.34405 22 8.99805V21.853Z"/>
</mask>
<path d="M17.899 3.99805L8.10087 5.99723L9.73334 13.998H17.899V3.99805ZM1.134 19.746L5.87004 10.9387L5.86086 10.9337L5.85166 10.9288L1.134 19.746ZM3.339 19.641L8.88065 27.9651L8.88665 27.9611L3.339 19.641ZM6.289 17.674L15.7065 14.311L11.3987 2.24787L0.741349 9.35398L6.289 17.674ZM16.697 20.998L22.2445 12.6779L19.7251 10.998H16.697V20.998ZM20.661 23.641L15.1135 31.9612L15.114 31.9615L20.661 23.641ZM22.866 23.746L18.1536 14.926L18.1415 14.9325L22.866 23.746ZM2.23 17.977L7.56993 26.4319L7.67522 26.3654L7.77883 26.2963L2.23 17.977ZM2.078 17.984L6.77793 9.15734L6.77228 9.15434L2.078 17.984ZM6.434 15.173L0.886998 6.85254L0.885172 6.85376L6.434 15.173ZM21.921 21.984L26.5275 30.8599L26.5715 30.837L26.6153 30.8138L21.921 21.984ZM21.77 21.977L16.2216 30.2966L16.223 30.2976L21.77 21.977ZM17.555 19.166L23.1034 10.8465L23.0968 10.8421L23.0903 10.8377L17.555 19.166ZM8.172 16.998V6.99805H-5.98691L-1.25236 20.3419L8.172 16.998ZM18 5.99805V-4.00195H8V5.99805H18ZM19 -6.00195H17.899V13.998H19V-6.00195ZM27.6971 1.99887C26.3033 -4.83247 20.2715 -10.002 13 -10.002V9.99805C10.5565 9.99805 8.56472 8.27056 8.10087 5.99723L27.6971 1.99887ZM13 -10.002H5V9.99805H13V-10.002ZM5 -10.002C-3.27985 -10.002 -10 -3.2818 -10 4.99805H10C10 7.76389 7.76585 9.99805 5 9.99805V-10.002ZM-10 4.99805V17.852H10V4.99805H-10ZM-10 17.852C-10 22.3317 -7.53714 26.448 -3.58366 28.5633L5.85166 10.9288C8.40714 12.2961 10 14.9604 10 17.852H-10ZM-3.60204 28.5534C-1.79101 29.5273 0.190756 30.001 2.149 30.001V10.001C3.41124 10.001 4.69501 10.3068 5.87004 10.9387L-3.60204 28.5534ZM2.149 30.001C4.50198 30.001 6.85113 29.3162 8.88065 27.9651L-2.20265 11.317C-0.891133 10.4439 0.628023 10.001 2.149 10.001V30.001ZM8.88665 27.9611L11.8367 25.9941L0.741349 9.35398L-2.20865 11.321L8.88665 27.9611ZM-3.12853 21.0371C-1.06603 26.8127 4.4575 30.998 11 30.998V10.998C13.2025 10.998 15.026 12.4054 15.7065 14.311L-3.12853 21.0371ZM11 30.998H16.697V10.998H11V30.998ZM11.1495 29.3182L15.1135 31.9612L26.2085 15.3209L22.2445 12.6779L11.1495 29.3182ZM15.114 31.9615C17.1408 33.3127 19.4899 34.002 21.851 34.002V14.002C23.3801 14.002 24.9012 14.4494 26.208 15.3205L15.114 31.9615ZM21.851 34.002C23.8354 34.002 25.8079 33.5152 27.5905 32.5596L18.1415 14.9325C19.2861 14.3189 20.5626 14.002 21.851 14.002V34.002ZM27.5784 32.5661C31.5437 30.4475 34 26.3248 34 21.852H14C14 18.9673 15.5883 16.2966 18.1536 14.926L27.5784 32.5661ZM34 21.852V8.99805H14V21.852H34ZM34 8.99805C34 0.718199 27.2798 -6.00195 19 -6.00195V13.998C16.2342 13.998 14 11.7639 14 8.99805H34ZM-3.10993 9.52216C-3.11405 9.52476 -2.69971 9.25543 -2.15178 8.98991C-1.59076 8.71805 -0.812986 8.40683 0.151253 8.2075C2.28469 7.76645 4.6455 8.0219 6.77793 9.15735L-2.62193 26.8107C-0.412503 27.9872 2.01481 28.2451 4.20025 27.7933C5.19049 27.5886 5.99063 27.2687 6.56991 26.988C6.86095 26.847 7.10128 26.7133 7.28022 26.6084C7.44804 26.5099 7.58737 26.4209 7.56993 26.4319L-3.10993 9.52216ZM6.77228 9.15434C8.8913 10.2809 10.4595 12.1064 11.2969 14.2052C11.6743 15.1511 11.8453 16.0045 11.9254 16.6556C11.9656 16.9825 11.9835 17.2636 11.9918 17.4797C11.9998 17.6871 11.999 17.855 11.999 17.853H-8.001C-8.001 18.0588 -8.0387 19.7131 -7.27913 21.6169C-6.42195 23.7652 -4.8143 25.6452 -2.61628 26.8138L6.77228 9.15434ZM11.999 17.853V4.99805H-8.001V17.853H11.999ZM11.999 4.99805C11.999 8.86689 8.86785 11.998 4.999 11.998V-8.00195C-2.17785 -8.00195 -8.001 -2.1788 -8.001 4.99805H11.999ZM4.999 11.998H12.999V-8.00195H4.999V11.998ZM12.999 11.998C9.13015 11.998 5.999 8.86689 5.999 4.99805H25.999C25.999 -2.1788 20.1758 -8.00195 12.999 -8.00195V11.998ZM5.999 4.99805V11.998H25.999V4.99805H5.999ZM5.999 11.998C5.999 8.1292 9.13015 4.99805 12.999 4.99805V24.998C20.1758 24.998 25.999 19.1749 25.999 11.998H5.999ZM12.999 4.99805H6.999V24.998H12.999V4.99805ZM6.999 4.99805C5.19954 4.99805 3.71738 5.43632 2.66225 5.88871C1.5886 6.34904 0.788991 6.91788 0.886998 6.85254L11.981 23.4935C12.284 23.2916 11.8762 23.5668 11.6376 23.7102C11.3436 23.8868 10.9776 24.0843 10.5435 24.2704C9.68312 24.6393 8.47146 24.998 6.999 24.998V4.99805ZM0.885172 6.85376L-3.31883 9.65776L7.77883 26.2963L11.9828 23.4923L0.885172 6.85376ZM12 21.853C12 21.8575 11.9999 21.8052 12.0007 21.7414C12.0014 21.6731 12.0032 21.5813 12.0075 21.4727C12.016 21.255 12.0341 20.9745 12.0743 20.6495C12.1542 20.0033 12.3237 19.158 12.6957 18.2209C13.5198 16.145 15.0751 14.2982 17.2267 13.1543L26.6153 30.8138C28.8459 29.6279 30.4407 27.7261 31.2845 25.6004C32.0337 23.7132 32 22.0782 32 21.853H12ZM17.3145 13.1082C19.3591 12.0471 21.6826 11.7534 23.8755 12.2134C24.8682 12.4216 25.6744 12.7503 26.2686 13.0479C26.566 13.1969 26.8125 13.3392 26.9992 13.4535C27.1781 13.563 27.3189 13.6578 27.317 13.6565L16.223 30.2976C16.4051 30.419 17.7615 31.3662 19.7697 31.7874C22.0139 32.2582 24.4039 31.962 26.5275 30.8599L17.3145 13.1082ZM27.3184 13.6575L23.1034 10.8465L12.0066 27.4856L16.2216 30.2966L27.3184 13.6575ZM23.0903 10.8377C21.3017 9.64897 19.1861 8.99805 17 8.99805V28.998C15.2099 28.998 13.4803 28.4651 12.0197 27.4944L23.0903 10.8377ZM17 8.99805H11V28.998H17V8.99805ZM11 8.99805C14.0771 8.99805 16.6436 10.9689 17.5964 13.6542L-1.25236 20.3419C0.526415 25.3552 5.31487 28.998 11 28.998V8.99805ZM8.172 26.998H13V6.99805H8.172V26.998ZM13 26.998C21.2798 26.998 28 20.2779 28 11.998H8C8 9.2322 10.2342 6.99805 13 6.99805V26.998ZM28 11.998V5.99805H8V11.998H28ZM18 15.998H19V-4.00195H18V15.998ZM19 15.998C15.1312 15.998 12 12.8669 12 8.99805H32C32 1.8212 26.1768 -4.00195 19 -4.00195V15.998ZM12 8.99805V21.853H32V8.99805H12Z" fill="#848484" mask="url(#path-1-inside-1_1181_1528)"/>
</svg>
