<svg width="24" height="25" viewBox="0 0 24 25" fill="none" xmlns="http://www.w3.org/2000/svg">
<path d="M1.70067 11.5767C1.70067 13.8634 2.5246 15.9772 3.91034 17.649C5.76422 19.9548 8.70421 21.4344 12 21.4344C12 21.4344 15.622 22.7644 18.0319 23.2684C18.8663 23.443 19.7921 22.8708 19.7921 22.0964C19.7921 21.1543 18.1796 19.4553 18.1796 19.4553C19.3278 18.6375 20.2878 17.5944 20.9914 16.3941C21.8255 14.9714 22.2993 13.3278 22.2993 11.5767C22.2993 9.82106 21.825 8.17414 20.9914 6.74889C20.2194 5.42867 19.1392 4.29864 17.8425 3.44853C16.1759 2.33402 14.1722 1.69995 12 1.69995C6.30728 1.69995 1.70067 6.11947 1.70067 11.5767Z" stroke="#E8F1F2" stroke-width="1.8" stroke-linecap="round" stroke-linejoin="round"/>
</svg>
