<svg width="24" height="24" viewBox="0 0 24 24" fill="none" xmlns="http://www.w3.org/2000/svg">
<path d="M0 0H16.8C20.7764 0 24 3.22355 24 7.2V24H7.2C3.22355 24 0 20.7764 0 16.8V0Z" fill="#272C46"/>
<path d="M11.7604 14.4643L14.7188 11.5059C14.2211 11.2981 13.769 10.9945 13.3884 10.6123C13.0061 10.2316 12.7023 9.7794 12.4944 9.28149L9.536 12.2399C9.3052 12.4707 9.1896 12.5863 9.0904 12.7135C8.97324 12.8636 8.87278 13.026 8.7908 13.1979C8.7216 13.3435 8.67 13.4987 8.5668 13.8083L8.022 15.4415C7.99692 15.5163 7.9932 15.5966 8.01126 15.6733C8.02931 15.7501 8.06842 15.8203 8.12419 15.8761C8.17996 15.9319 8.25018 15.971 8.32695 15.989C8.40373 16.0071 8.48402 16.0034 8.5588 15.9783L10.192 15.4335C10.502 15.3303 10.6568 15.2787 10.8024 15.2095C10.9744 15.1275 11.1368 15.0271 11.2868 14.9099C11.414 14.8107 11.5296 14.6951 11.7604 14.4643ZM15.5396 10.6851C15.8346 10.3901 16.0003 9.99004 16.0003 9.57289C16.0003 9.15573 15.8346 8.75566 15.5396 8.46069C15.2446 8.16571 14.8446 8 14.4274 8C14.0102 8 13.6102 8.16571 13.3152 8.46069L12.9604 8.81549L12.9756 8.85989C13.1504 9.36018 13.4366 9.81425 13.8124 10.1879C14.1972 10.575 14.6672 10.8667 15.1848 11.0399L15.5396 10.6851Z" fill="#BBBBBB"/>
</svg>
