<svg width="26" height="18" viewBox="0 0 26 18" fill="none" xmlns="http://www.w3.org/2000/svg">
<path d="M10.333 9.00016C10.333 9.70741 10.614 10.3857 11.1141 10.8858C11.6142 11.3859 12.2924 11.6668 12.9997 11.6668C13.7069 11.6668 14.3852 11.3859 14.8853 10.8858C15.3854 10.3857 15.6663 9.70741 15.6663 9.00016C15.6663 8.29292 15.3854 7.61464 14.8853 7.11455C14.3852 6.61445 13.7069 6.3335 12.9997 6.3335C12.2924 6.3335 11.6142 6.61445 11.1141 7.11455C10.614 7.61464 10.333 8.29292 10.333 9.00016Z" stroke="white" stroke-width="1.5" stroke-linecap="round" stroke-linejoin="round"/>
<path d="M25 9C21.8 14.3333 17.8 17 13 17C8.2 17 4.2 14.3333 1 9C4.2 3.66667 8.2 1 13 1C17.8 1 21.8 3.66667 25 9Z" stroke="white" stroke-width="1.5" stroke-linecap="round" stroke-linejoin="round"/>
</svg>
