<svg width="32" height="32" viewBox="0 0 32 32" fill="none" xmlns="http://www.w3.org/2000/svg">
<path d="M23 28.0023H9C6.243 28.0023 4 25.7593 4 23.0023V13.7263C4 12.0613 4.824 10.5113 6.204 9.5813L13.203 4.8573C14.902 3.7113 17.098 3.7113 18.797 4.8573L25.797 9.5813C27.176 10.5113 28 12.0603 28 13.7263V23.0023C28 25.7593 25.757 28.0023 23 28.0023ZM16 5.9993C15.416 5.9993 14.832 6.1713 14.322 6.5163L7.322 11.2393C6.494 11.7973 6 12.7263 6 13.7253V23.0013C6 24.6553 7.346 26.0013 9 26.0013H23C24.654 26.0013 26 24.6553 26 23.0013V13.7263C26 12.7273 25.506 11.7973 24.679 11.2403L17.678 6.5163C17.168 6.1713 16.584 5.9993 16 5.9993Z" fill="#848484"/>
</svg>
