<svg width="5" height="20" viewBox="0 0 5 20" fill="none" xmlns="http://www.w3.org/2000/svg">
<path d="M4.99998 16.9507C4.99998 17.6311 4.79405 18.1952 4.38218 18.6429C3.9524 19.0727 3.42414 19.2876 2.79738 19.2876C2.17063 19.2876 1.65132 19.0727 1.23945 18.6429C0.809676 18.1952 0.594788 17.6311 0.594788 16.9507C0.594788 16.2881 0.809676 15.7419 1.23945 15.3122C1.65132 14.8824 2.17063 14.6675 2.79738 14.6675C3.42414 14.6675 3.9524 14.8824 4.38218 15.3122C4.79405 15.7419 4.99998 16.2881 4.99998 16.9507Z" fill="white"/>
<path d="M4.99998 9.97313C4.99998 10.6536 4.79405 11.2177 4.38218 11.6654C3.9524 12.0951 3.42414 12.31 2.79738 12.31C2.17063 12.31 1.65132 12.0951 1.23945 11.6654C0.809675 11.2177 0.594788 10.6536 0.594788 9.97313C0.594788 9.31056 0.809675 8.76438 1.23945 8.33461C1.65132 7.90484 2.17063 7.68995 2.79738 7.68995C3.42414 7.68995 3.9524 7.90484 4.38218 8.33461C4.79405 8.76438 4.99998 9.31056 4.99998 9.97313Z" fill="white"/>
<path d="M4.99998 2.99558C4.99998 3.67606 4.79405 4.24014 4.38218 4.68782C3.9524 5.11759 3.42414 5.33248 2.79738 5.33248C2.17063 5.33248 1.65132 5.11759 1.23945 4.68782C0.809675 4.24014 0.594788 3.67606 0.594788 2.99558C0.594788 2.33301 0.809675 1.78684 1.23945 1.35706C1.65132 0.92729 2.17063 0.712402 2.79738 0.712402C3.42414 0.712402 3.9524 0.92729 4.38218 1.35706C4.79405 1.78684 4.99998 2.33301 4.99998 2.99558Z" fill="white"/>
</svg>
