<svg width="18" height="18" viewBox="0 0 18 18" fill="none" xmlns="http://www.w3.org/2000/svg">
<path d="M8.98484 7.67435C9.19569 7.67435 9.39791 7.75811 9.54701 7.90721C9.6961 8.0563 9.77987 8.25852 9.77987 8.46938V13.7695C9.77987 13.9804 9.6961 14.1826 9.54701 14.3317C9.39791 14.4808 9.19569 14.5646 8.98484 14.5646C8.77399 14.5646 8.57177 14.4808 8.42267 14.3317C8.27358 14.1826 8.18981 13.9804 8.18981 13.7695V8.46938C8.18981 8.25852 8.27358 8.0563 8.42267 7.90721C8.57177 7.75811 8.77399 7.67435 8.98484 7.67435ZM8.98484 5.81929C9.26598 5.81929 9.5356 5.70761 9.7344 5.50881C9.93319 5.31002 10.0449 5.04039 10.0449 4.75925C10.0449 4.47811 9.93319 4.20849 9.7344 4.0097C9.5356 3.8109 9.26598 3.69922 8.98484 3.69922C8.7037 3.69922 8.43408 3.8109 8.23528 4.0097C8.03649 4.20849 7.9248 4.47811 7.9248 4.75925C7.9248 5.04039 8.03649 5.31002 8.23528 5.50881C8.43408 5.70761 8.7037 5.81929 8.98484 5.81929Z" fill="#E8F1F2"/>
<path fill-rule="evenodd" clip-rule="evenodd" d="M4.02069 0.274317C7.32001 -0.0914391 10.6496 -0.0914391 13.949 0.274317C15.8857 0.490564 17.4492 2.01489 17.6761 3.96324C18.0683 7.30871 18.0683 10.6902 17.6761 14.0367C17.4481 15.983 15.8846 17.5084 13.949 17.7257C10.6496 18.0914 7.32001 18.0914 4.02069 17.7257C2.084 17.5084 0.520451 15.983 0.293603 14.0367C-0.0978677 10.69 -0.0978677 7.30896 0.293603 3.96218C0.520451 2.01489 2.08506 0.490564 4.02069 0.273257M13.773 1.85271C10.5906 1.49997 7.37902 1.49997 4.19665 1.85271C3.60753 1.91807 3.05764 2.18013 2.63583 2.59655C2.21402 3.01298 1.94492 3.55945 1.87199 4.14768C1.49499 7.37122 1.49499 10.6277 1.87199 13.8512C1.94536 14.4391 2.21466 14.9851 2.63643 15.4011C3.0582 15.8171 3.60785 16.0788 4.19665 16.1441C7.35237 16.4971 10.6173 16.4971 13.773 16.1441C14.3616 16.0786 14.911 15.8168 15.3326 15.4008C15.7541 14.9848 16.0233 14.4389 16.0966 13.8512C16.4736 10.6277 16.4736 7.37122 16.0966 4.14768C16.0235 3.5598 15.7545 3.0137 15.3329 2.5975C14.9113 2.18131 14.3618 1.91824 13.773 1.85271Z" fill="#E8F1F2"/>
</svg>
