<svg width="27" height="26" viewBox="0 0 27 26" fill="none" xmlns="http://www.w3.org/2000/svg">
<path d="M22.3245 7.00001C22.5989 5.43428 21.394 4 19.8045 4H6.69586C5.10627 4 3.90146 5.43428 4.1758 7.00001" stroke="#848484" stroke-width="1.75"/>
<path d="M19.8491 4.00001C19.8832 3.68911 19.9002 3.53363 19.9005 3.40523C19.9032 2.17687 18.9779 1.14477 17.7566 1.0137C17.6289 1 17.4725 1 17.1598 1H9.33841C9.02564 1 8.86924 1 8.74156 1.0137C7.52022 1.14477 6.59499 2.17687 6.59766 3.40521C6.59794 3.53363 6.61497 3.68909 6.64901 4.00001" stroke="#848484" stroke-width="1.75"/>
<path d="M16.8504 20.2001H9.65039" stroke="#848484" stroke-width="1.75" stroke-linecap="round"/>
<path d="M1.71021 15.1516C1.17498 11.3553 0.907363 9.45719 2.04479 8.2286C3.18221 7 5.20711 7 9.25689 7H17.2432C21.2929 7 23.3178 7 24.4553 8.2286C25.5927 9.45719 25.3251 11.3553 24.7899 15.1516L24.2823 18.7516C23.8625 21.7287 23.6527 23.2172 22.5761 24.1087C21.4994 25 19.9115 25 16.7356 25H9.76445C6.58859 25 5.00065 25 3.92402 24.1087C2.84738 23.2172 2.63752 21.7287 2.21778 18.7516L1.71021 15.1516Z" stroke="#848484" stroke-width="1.75"/>
</svg>
