<svg width="17" height="15" viewBox="0 0 17 15" fill="none" xmlns="http://www.w3.org/2000/svg">
<path d="M9.57376 2.92698L9.58171 2.91178C9.5899 2.8964 9.60378 2.8709 9.62336 2.83696C9.66263 2.76892 9.72424 2.6679 9.80816 2.54692C9.97742 2.30293 10.2296 1.98903 10.5624 1.70064C11.2152 1.13497 12.1524 0.67958 13.4485 1.00681L13.4486 1.00686C15.3555 1.48782 17.1676 4.52258 15.3285 7.34032L15.3284 7.3404C14.3152 8.89307 12.6115 10.5185 11.1166 11.7806C10.3768 12.4052 9.70257 12.9289 9.21368 13.296C9.08761 13.3907 8.974 13.4749 8.8749 13.5477C8.77581 13.4749 8.66218 13.3907 8.53611 13.296C8.04723 12.9289 7.37304 12.4052 6.63325 11.7806C5.13831 10.5185 3.43457 8.89307 2.4214 7.3404L2.42136 7.34035C0.582643 4.52307 2.39425 1.48819 4.30149 1.00683L4.30156 1.00681C5.59766 0.679581 6.53477 1.13497 7.18748 1.70062C7.52025 1.98901 7.77241 2.3029 7.94165 2.54689C8.02556 2.66787 8.08716 2.76888 8.12642 2.83692C8.146 2.87087 8.15988 2.89636 8.16807 2.91174L8.17602 2.92694C8.17663 2.92813 8.17688 2.92863 8.17677 2.9284L8.17633 2.92753L8.17591 2.92668L8.17565 2.92615C8.1755 2.92586 8.17535 2.92556 8.8749 2.58054L8.17535 2.92556C8.30671 3.19189 8.57791 3.36053 8.87488 3.36054C9.17162 3.36055 9.44265 3.19218 9.57413 2.92619L9.57387 2.92672L9.57376 2.92698ZM9.57376 2.92698C9.57342 2.92764 9.57319 2.92809 9.57307 2.92832L9.57345 2.92757L9.57376 2.92698Z" stroke="#E8F1F2" stroke-width="1.56" stroke-miterlimit="16" stroke-linejoin="round"/>
</svg>
