<svg width="82" height="53" viewBox="0 0 82 53" fill="none" xmlns="http://www.w3.org/2000/svg">
<path fill-rule="evenodd" clip-rule="evenodd" d="M72.3589 34.741C67.8573 35.6765 68.1774 31.5854 67.7463 28.5479C67.3163 25.5104 65.2933 16.9862 64.1826 13.3333C63.0729 9.68149 57.5374 4.28916 48.9065 2.10323C40.9447 0.0861551 33.8823 1.37493 32.8366 1.58627C31.7835 1.75928 24.7233 3.06152 18.0685 7.76076C10.8546 12.8537 7.72722 19.8352 8.06652 23.629C8.40582 27.4228 9.72569 36.0754 10.4662 39.057C11.2067 42.0385 13.0419 45.7339 8.49972 46.457C3.95756 47.1812 -0.897234 47.4609 0.142011 49.1817C1.18126 50.9025 3.16479 53.8177 30.6888 50.4964C30.6888 50.4964 39.5266 49.1827 41.8804 48.7683C41.9209 48.7621 41.9668 48.7538 42.0148 48.7445C42.0629 48.7362 42.1087 48.7279 42.1493 48.7196C44.4956 48.27 53.2171 46.3628 53.2171 46.3628C80.0924 39.7034 80.8436 36.2867 81.1647 34.3163C81.4859 32.3458 76.8605 33.8045 72.3599 34.74L72.3589 34.741ZM24.3818 30.452L24.3338 30.4551C23.7395 30.451 23.2636 29.9858 23.2625 29.416L23.2583 21.9435C23.2625 21.3664 23.7416 20.9044 24.3285 20.9033L24.384 20.9054C24.9772 20.9033 25.4531 21.3685 25.4541 21.9393V29.4192C25.4541 29.9889 24.9761 30.4572 24.3818 30.4531V30.452ZM28.7629 36.8368H28.7383C28.1376 36.8327 27.6553 36.3624 27.6521 35.7812V15.57C27.6521 14.994 28.1397 14.5185 28.7341 14.5227H28.765C29.3582 14.5216 29.8469 14.9899 29.8501 15.5711V35.7822C29.8459 36.3655 29.3625 36.8337 28.7629 36.8368ZM33.1631 33.6356H33.1268C32.5208 33.6356 32.0374 33.1653 32.0342 32.5831L32.0385 18.7702C32.0364 18.1942 32.5251 17.7187 33.1258 17.7208H33.162C33.7606 17.7166 34.245 18.1921 34.2482 18.7744V32.581C34.2461 33.1632 33.7628 33.6325 33.1631 33.6356ZM38.625 38.972C38.6282 39.5532 38.1438 40.0225 37.5452 40.0256H37.5143C36.92 40.0215 36.4313 39.5522 36.4356 38.9762L36.4313 11.3163C36.4292 10.7403 36.9178 10.2647 37.5186 10.2679H37.5431C38.1417 10.2658 38.625 10.7361 38.6282 11.3173L38.6261 38.972H38.625ZM41.937 33.6356L41.8943 33.6377C41.301 33.6398 40.8113 33.1653 40.8155 32.5882L40.8113 18.765C40.8155 18.188 41.2989 17.7187 41.8985 17.7166H41.9348C42.5345 17.7187 43.0178 18.188 43.021 18.7702L43.0178 32.5893C43.021 33.1705 42.5366 33.6398 41.937 33.6367V33.6356ZM46.3223 36.8348H46.2913C45.6917 36.8317 45.2083 36.3624 45.2062 35.7863V15.57C45.2105 14.993 45.6927 14.5185 46.2924 14.5216H46.3169C46.9155 14.5206 47.3989 14.9899 47.4021 15.5711V35.7822C47.4042 36.3634 46.9144 36.8337 46.3212 36.8358L46.3223 36.8348ZM51.7874 21.9362L51.7927 29.415C51.7874 29.9858 51.3094 30.4541 50.7215 30.4489L50.6734 30.452C50.0802 30.4541 49.6043 29.9889 49.6022 29.4129L49.6043 21.9393C49.6022 21.3633 50.0813 20.9012 50.6692 20.9002L50.7247 20.9023C51.3115 20.9023 51.7874 21.3664 51.7884 21.9372L51.7874 21.9362Z" fill="#1D9BF0"/>
</svg>
