<svg width="25" height="24" viewBox="0 0 25 24" fill="none" xmlns="http://www.w3.org/2000/svg">
<g clip-path="url(#clip0_482_2383)">
<path d="M11.5 17C11.5 17.394 11.5776 17.7841 11.7284 18.1481C11.8791 18.512 12.1001 18.8427 12.3787 19.1213C12.6573 19.3999 12.988 19.6209 13.3519 19.7716C13.7159 19.9224 14.106 20 14.5 20C14.894 20 15.2841 19.9224 15.6481 19.7716C16.012 19.6209 16.3427 19.3999 16.6213 19.1213C16.8999 18.8427 17.1209 18.512 17.2716 18.1481C17.4224 17.7841 17.5 17.394 17.5 17C17.5 16.606 17.4224 16.2159 17.2716 15.8519C17.1209 15.488 16.8999 15.1573 16.6213 14.8787C16.3427 14.6001 16.012 14.3791 15.6481 14.2284C15.2841 14.0776 14.894 14 14.5 14C14.106 14 13.7159 14.0776 13.3519 14.2284C12.988 14.3791 12.6573 14.6001 12.3787 14.8787C12.1001 15.1573 11.8791 15.488 11.7284 15.8519C11.5776 16.2159 11.5 16.606 11.5 17Z" stroke="#515151" stroke-width="2.75" stroke-linecap="round" stroke-linejoin="round"/>
<path d="M17.5 17V4H21.5" stroke="#515151" stroke-width="2.75" stroke-linecap="round" stroke-linejoin="round"/>
<path d="M13.5 5H3.5" stroke="#515151" stroke-width="2.75" stroke-linecap="round" stroke-linejoin="round"/>
<path d="M3.5 9H13.5" stroke="#515151" stroke-width="2.75" stroke-linecap="round" stroke-linejoin="round"/>
<path d="M9.5 13H3.5" stroke="#515151" stroke-width="2.75" stroke-linecap="round" stroke-linejoin="round"/>
</g>
<defs>
<clipPath id="clip0_482_2383">
<rect width="24" height="24" fill="white" transform="translate(0.5)"/>
</clipPath>
</defs>
</svg>
