<svg width="23" height="24" viewBox="0 0 23 24" fill="none" xmlns="http://www.w3.org/2000/svg">
<path d="M22.4432 13.6583L20.5432 6.82227C19.9863 4.81961 18.7759 3.06056 17.1045 1.82474C15.4331 0.588925 13.3966 -0.0527411 11.3186 0.00173899C9.24069 0.0562191 7.24058 0.803719 5.63623 2.12542C4.03188 3.44712 2.91537 5.26717 2.46417 7.29627L0.993165 13.9113C0.830681 14.6422 0.834438 15.4003 1.00416 16.1296C1.17388 16.8589 1.50523 17.5407 1.97375 18.1248C2.44227 18.7089 3.03599 19.1803 3.71108 19.5042C4.38617 19.8281 5.12539 19.9963 5.87417 19.9963H6.98817C7.21768 21.1266 7.8309 22.1427 8.72391 22.8726C9.61692 23.6026 10.7348 24.0013 11.8882 24.0013C13.0415 24.0013 14.1594 23.6026 15.0524 22.8726C15.9454 22.1427 16.5587 21.1266 16.7882 19.9963H17.6262C18.397 19.9963 19.1574 19.8182 19.8479 19.4757C20.5385 19.1333 21.1405 18.6358 21.607 18.0221C22.0735 17.4085 22.3917 16.6953 22.537 15.9383C22.6822 15.1813 22.6494 14.401 22.4432 13.6583ZM11.8882 21.9963C11.2699 21.9937 10.6675 21.8002 10.1635 21.4422C9.6594 21.0842 9.27825 20.5792 9.07217 19.9963H14.7042C14.4981 20.5792 14.1169 21.0842 13.6129 21.4422C13.1088 21.8002 12.5064 21.9937 11.8882 21.9963ZM20.0142 16.8113C19.7355 17.1809 19.3745 17.4805 18.9598 17.6862C18.5451 17.8919 18.0881 17.9981 17.6252 17.9963H5.87417C5.42495 17.9962 4.98149 17.8952 4.57651 17.7008C4.17153 17.5065 3.81537 17.2236 3.53433 16.8732C3.25328 16.5227 3.05453 16.1136 2.95273 15.6761C2.85093 15.2386 2.84869 14.7838 2.94617 14.3453L4.41617 7.72927C4.77052 6.13548 5.64747 4.70588 6.90762 3.66772C8.16777 2.62957 9.73879 2.04244 11.3709 1.99969C13.0031 1.95693 14.6027 2.46099 15.9155 3.43174C17.2283 4.40249 18.1789 5.78422 18.6162 7.35727L20.5162 14.1933C20.6417 14.6386 20.6617 15.1071 20.5746 15.5616C20.4874 16.016 20.2955 16.4439 20.0142 16.8113Z" fill="#848484"/>
</svg>
