<svg width="25" height="24" viewBox="0 0 25 24" fill="none" xmlns="http://www.w3.org/2000/svg">
<path fill-rule="evenodd" clip-rule="evenodd" d="M20.4969 6.53202C20.4334 6.91831 20.2858 7.58771 14.9888 8.89299C14.9888 8.89299 13.2699 9.26693 12.8072 9.35469C12.799 9.35645 12.7903 9.35777 12.7808 9.35954C12.7712 9.3613 12.762 9.36307 12.7543 9.36439C12.2902 9.44509 10.5486 9.70262 10.5486 9.70262C5.12403 10.3535 4.73304 9.78199 4.52795 9.44509C4.32332 9.10774 5.27978 9.05306 6.17504 8.91107C7.0703 8.76908 6.70854 8.04456 6.56283 7.46071C6.41712 6.87686 6.15677 5.18088 6.09008 4.4374C6.02339 3.69392 6.63957 2.32558 8.06147 1.32765C9.3733 0.406461 10.7646 0.151578 10.9724 0.117623C11.1784 0.0761716 12.5702 -0.176506 14.1396 0.219047C15.8406 0.647232 16.9318 1.7038 17.1506 2.41994C17.3694 3.13564 17.7682 4.80605 17.8527 5.40136C17.9376 5.99668 17.8746 6.79837 18.7616 6.61492C19.6487 6.43148 20.5604 6.14573 20.4969 6.53202Z" fill="#515151"/>
<path d="M16.5839 14H8.41628C5.65208 14.0033 3.41249 16.2205 3.40918 18.957V21.9998C3.40918 23.1044 4.30461 23.9998 5.40918 23.9998H19.591C20.6956 23.9998 21.591 23.1044 21.591 21.9998V18.957C21.5877 16.2209 19.3481 14.0033 16.5839 14Z" fill="#515151"/>
</svg>
