<svg width="18" height="20" viewBox="0 0 18 20" fill="none" xmlns="http://www.w3.org/2000/svg">
<path d="M10.2498 16.1161L10.2498 16.1161L10.245 16.1134C9.86304 15.9045 9.41114 15.8208 9 15.8208C8.58886 15.8208 8.13696 15.9045 7.75501 16.1134L7.755 16.1134L7.75016 16.1161L3.17636 18.6617C3.17587 18.6619 3.17539 18.6622 3.17491 18.6625C2.58049 18.9893 2.20298 18.9274 2.01812 18.8188C1.83429 18.7109 1.59782 18.4137 1.59782 17.7368V4.52359C1.59782 2.94973 2.89157 1.65625 4.46971 1.65625H13.5303C15.1084 1.65625 16.4022 2.94973 16.4022 4.52359V17.7368C16.4022 18.4137 16.1657 18.7109 15.9819 18.8188C15.797 18.9274 15.4195 18.9893 14.8251 18.6625C14.8246 18.6622 14.8241 18.6619 14.8236 18.6617L10.2498 16.1161Z" stroke="#E8F1F2" stroke-width="1.5" stroke-linecap="round" stroke-linejoin="round"/>
</svg>
