<svg width="20" height="21" viewBox="0 0 20 21" fill="none" xmlns="http://www.w3.org/2000/svg">
<path d="M19.3833 18.7521L14.6081 13.9769C15.9094 12.3854 16.5492 10.3546 16.3952 8.30455C16.2412 6.25452 15.3051 4.34212 13.7806 2.96291C12.2561 1.58371 10.2598 0.84321 8.20463 0.894596C6.14947 0.945981 4.19267 1.78532 2.739 3.23899C1.28533 4.69266 0.445997 6.64945 0.394611 8.70461C0.343226 10.7598 1.08372 12.7561 2.46293 14.2806C3.84214 15.8051 5.75454 16.7411 7.80456 16.8952C9.85459 17.0492 11.8854 16.4094 13.4769 15.1081L18.2521 19.8833C18.403 20.029 18.6051 20.1097 18.8148 20.1078C19.0246 20.106 19.2252 20.0219 19.3736 19.8736C19.5219 19.7252 19.606 19.5246 19.6079 19.3148C19.6097 19.1051 19.529 18.903 19.3833 18.7521ZM8.41771 15.3177C7.15191 15.3177 5.91454 14.9423 4.86206 14.2391C3.80959 13.5359 2.98928 12.5363 2.50488 11.3669C2.02048 10.1974 1.89374 8.9106 2.14069 7.66912C2.38763 6.42764 2.99717 5.28727 3.89223 4.39221C4.78728 3.49716 5.92766 2.88762 7.16913 2.64067C8.41061 2.39373 9.69744 2.52047 10.8669 3.00487C12.0363 3.48927 13.0359 4.30957 13.7391 5.36205C14.4424 6.41452 14.8177 7.6519 14.8177 8.9177C14.8158 10.6145 14.1409 12.2413 12.9411 13.4411C11.7413 14.6409 10.1145 15.3158 8.41771 15.3177Z" fill="#BBBBBB"/>
</svg>
