<svg width="20" height="22" viewBox="0 0 20 22" fill="none" xmlns="http://www.w3.org/2000/svg">
<path d="M19.6748 13.6649L18.1397 12.3524C18.2123 11.9071 18.2498 11.4524 18.2498 10.9978C18.2498 10.5431 18.2123 10.0884 18.1397 9.64307L19.6748 8.33057C19.7906 8.23144 19.8735 8.09942 19.9124 7.95205C19.9513 7.80468 19.9445 7.64895 19.8928 7.50557L19.8717 7.44463C19.4491 6.26344 18.8162 5.16846 18.0037 4.2126L17.9615 4.16338C17.863 4.04748 17.7316 3.96417 17.5847 3.92443C17.4379 3.88468 17.2824 3.89036 17.1389 3.94072L15.2334 4.61807C14.5303 4.0415 13.7451 3.58682 12.8967 3.26807L12.5287 1.27588C12.501 1.12598 12.4282 0.988072 12.3202 0.880483C12.2122 0.772894 12.074 0.700715 11.924 0.673535L11.8607 0.661816C10.6397 0.441504 9.35528 0.441504 8.13418 0.661816L8.0709 0.673535C7.9209 0.700715 7.78271 0.772894 7.6747 0.880483C7.56669 0.988072 7.49398 1.12598 7.46622 1.27588L7.0959 3.27744C6.25424 3.59626 5.47043 4.0507 4.77559 4.62275L2.85606 3.94072C2.71254 3.88996 2.55698 3.88408 2.41003 3.92385C2.26309 3.96362 2.13173 4.04716 2.0334 4.16338L1.99122 4.2126C1.17968 5.16914 0.546941 6.26393 0.123247 7.44463L0.102153 7.50557C-0.0033156 7.79853 0.0834032 8.12666 0.320122 8.33057L1.87403 9.65713C1.80137 10.0978 1.76622 10.5478 1.76622 10.9954C1.76622 11.4454 1.80137 11.8954 1.87403 12.3337L0.320122 13.6603C0.204331 13.7594 0.121457 13.8914 0.0825219 14.0388C0.0435864 14.1861 0.0504336 14.3419 0.102153 14.4853L0.123247 14.5462C0.547466 15.7274 1.17559 16.8173 1.99122 17.7782L2.0334 17.8274C2.13197 17.9433 2.26333 18.0266 2.41019 18.0664C2.55704 18.1061 2.7125 18.1005 2.85606 18.0501L4.77559 17.3681C5.47403 17.9423 6.2545 18.397 7.0959 18.7134L7.46622 20.7149C7.49398 20.8648 7.56669 21.0027 7.6747 21.1103C7.78271 21.2179 7.9209 21.2901 8.0709 21.3173L8.13418 21.329C9.3665 21.5505 10.6284 21.5505 11.8607 21.329L11.924 21.3173C12.074 21.2901 12.2122 21.2179 12.3202 21.1103C12.4282 21.0027 12.501 20.8648 12.5287 20.7149L12.8967 18.7228C13.7448 18.4048 14.5344 17.9487 15.2334 17.3728L17.1389 18.0501C17.2824 18.1009 17.438 18.1067 17.5849 18.067C17.7318 18.0272 17.8632 17.9437 17.9615 17.8274L18.0037 17.7782C18.8193 16.8149 19.4475 15.7274 19.8717 14.5462L19.8928 14.4853C19.9982 14.197 19.9115 13.8688 19.6748 13.6649ZM16.4756 9.91963C16.5342 10.2735 16.5647 10.6368 16.5647 11.0001C16.5647 11.3634 16.5342 11.7267 16.4756 12.0806L16.3209 13.0204L18.0717 14.5181C17.8063 15.1295 17.4712 15.7083 17.0732 16.2431L14.8982 15.472L14.1623 16.0767C13.6022 16.536 12.9787 16.897 12.3037 17.1501L11.4107 17.4853L10.9912 19.7587C10.3293 19.8337 9.66097 19.8337 8.99903 19.7587L8.5795 17.4806L7.69356 17.1407C7.02559 16.8876 6.4045 16.5267 5.84903 16.0696L5.11309 15.4626L2.92403 16.2407C2.52559 15.704 2.19278 15.1251 1.92559 14.5157L3.69512 13.004L3.54278 12.0665C3.48653 11.7173 3.45606 11.3563 3.45606 11.0001C3.45606 10.6415 3.48418 10.2829 3.54278 9.93369L3.69512 8.99619L1.92559 7.48447C2.19043 6.87275 2.52559 6.29619 2.92403 5.75947L5.11309 6.5376L5.84903 5.93057C6.4045 5.47354 7.02559 5.1126 7.69356 4.85947L8.58184 4.52432L9.00137 2.24619C9.65997 2.17119 10.3326 2.17119 10.9936 2.24619L11.4131 4.51963L12.3061 4.85478C12.9787 5.10791 13.6045 5.46885 14.1647 5.92822L14.9006 6.53291L17.0756 5.76182C17.474 6.29853 17.8068 6.87744 18.074 7.48682L16.3232 8.98447L16.4756 9.91963ZM9.99981 6.64072C7.72168 6.64072 5.87481 8.4876 5.87481 10.7657C5.87481 13.0438 7.72168 14.8907 9.99981 14.8907C12.2779 14.8907 14.1248 13.0438 14.1248 10.7657C14.1248 8.4876 12.2779 6.64072 9.99981 6.64072ZM11.8561 12.622C11.6126 12.8661 11.3233 13.0598 11.0047 13.1917C10.6861 13.3236 10.3446 13.3913 9.99981 13.3907C9.29903 13.3907 8.64043 13.1165 8.14356 12.622C7.8994 12.3785 7.70578 12.0892 7.57385 11.7706C7.44192 11.452 7.37427 11.1105 7.37481 10.7657C7.37481 10.0649 7.64903 9.40635 8.14356 8.90947C8.64043 8.4126 9.29903 8.14072 9.99981 8.14072C10.7006 8.14072 11.3592 8.4126 11.8561 8.90947C12.1002 9.15294 12.2938 9.44227 12.4258 9.76084C12.5577 10.0794 12.6253 10.4209 12.6248 10.7657C12.6248 11.4665 12.3506 12.1251 11.8561 12.622Z" fill="#BBBBBB"/>
</svg>
