<svg width="16" height="16" viewBox="0 0 16 16" fill="none" xmlns="http://www.w3.org/2000/svg">
<path d="M13.7755 0.925105C13.7831 0.922608 13.7906 0.91999 13.7981 0.917252C14.1722 0.780476 14.5916 0.873146 14.8733 1.1548C15.155 1.43645 15.2476 1.85594 15.1108 2.23C15.1081 2.23748 15.1055 2.245 15.103 2.25256L11.1646 14.189C11.1598 14.2036 11.1554 14.2184 11.1515 14.2333C11.1278 14.3233 11.0615 14.3957 10.9744 14.4272L10.9742 14.4273C10.9177 14.4478 10.8569 14.4494 10.8005 14.4333C10.8004 14.4329 10.8002 14.4326 10.8001 14.4322L8.66054 9.27041C8.65201 9.24982 8.64256 9.22963 8.63223 9.20988C8.43299 8.8291 8.18097 8.47831 7.88371 8.16795C7.87624 8.16015 7.8686 8.15251 7.8608 8.14504C7.55044 7.84784 7.19969 7.59584 6.81897 7.39659C6.7992 7.38625 6.77899 7.3768 6.75839 7.36826L1.5966 5.22872C1.59606 5.22849 1.59552 5.22827 1.59498 5.22805C1.57859 5.17144 1.58008 5.1103 1.60066 5.05337C1.63227 4.96594 1.70487 4.89965 1.79479 4.87611C1.80993 4.87214 1.82493 4.86771 1.83979 4.86281L13.7755 0.925105Z" stroke="#E8F1F2" stroke-width="1.5" stroke-linecap="round" stroke-linejoin="round"/>
</svg>
