<svg width="18" height="18" viewBox="0 0 18 18" fill="none" xmlns="http://www.w3.org/2000/svg">
<path fill-rule="evenodd" clip-rule="evenodd" d="M5.53772 8.99817C5.53772 9.27096 5.48399 9.54108 5.3796 9.79311C5.27521 10.0451 5.12219 10.2741 4.9293 10.467C4.73641 10.6599 4.50741 10.8129 4.25538 10.9173C4.00336 11.0217 3.73324 11.0754 3.46044 11.0754C3.18765 11.0754 2.91753 11.0217 2.6655 10.9173C2.41348 10.8129 2.18448 10.6599 1.99159 10.467C1.79869 10.2741 1.64568 10.0451 1.54129 9.79311C1.4369 9.54108 1.38317 9.27096 1.38317 8.99817C1.38317 8.44724 1.60202 7.91888 1.99159 7.52931C2.38115 7.13975 2.90952 6.92089 3.46044 6.92089C4.01137 6.92089 4.53974 7.13975 4.9293 7.52931C5.31887 7.91888 5.53772 8.44724 5.53772 8.99817ZM6.52512 10.6101C6.16485 11.2949 5.58556 11.8393 4.87971 12.1563C4.17386 12.4734 3.38215 12.5448 2.63095 12.3593C1.87974 12.1737 1.21235 11.7419 0.735293 11.1327C0.258238 10.5234 -0.000976562 9.77195 -0.000976562 8.99817C-0.000976562 8.22439 0.258238 7.47291 0.735293 6.86368C1.21235 6.25446 1.87974 5.8226 2.63095 5.63705C3.38215 5.4515 4.17386 5.52295 4.87971 5.84C5.58556 6.15704 6.16485 6.70141 6.52512 7.3862L11.2212 4.45031C11.0794 3.97427 11.0417 3.47329 11.1107 2.98139C11.1796 2.48949 11.3537 2.01819 11.6209 1.59949C11.8881 1.1808 12.2423 0.824502 12.6594 0.554802C13.0765 0.285103 13.5468 0.108314 14.0383 0.0364385C14.5298 -0.0354368 15.031 -0.000715282 15.5078 0.138245C15.9847 0.277206 16.4261 0.517152 16.802 0.841792C17.178 1.16643 17.4797 1.56816 17.6866 2.01971C17.8935 2.47126 18.0009 2.96205 18.0014 3.45876C18.0011 4.18214 17.7742 4.88725 17.3526 5.47506C16.931 6.06288 16.3358 6.50387 15.6507 6.7361C14.9656 6.96834 14.225 6.98015 13.5329 6.76987C12.8407 6.5596 12.2318 6.13781 11.7917 5.56374L6.90319 8.6201C6.93051 8.87141 6.93051 9.12493 6.90319 9.37623L11.7917 12.4312C12.3174 11.7457 13.0803 11.2814 13.9307 11.1296C14.7812 10.9778 15.6576 11.1494 16.388 11.6108C17.1184 12.0721 17.6499 12.7898 17.8782 13.623C18.1065 14.4561 18.015 15.3445 17.6218 16.1137C17.2286 16.8829 16.5621 17.4773 15.753 17.7802C14.944 18.0831 14.051 18.0726 13.2493 17.7508C12.4476 17.4289 11.7952 16.819 11.4202 16.0407C11.0452 15.2625 10.9747 14.3722 11.2225 13.5446L6.52512 10.6101ZM14.5393 5.53604C14.812 5.53604 15.0822 5.48231 15.3342 5.37791C15.5862 5.27352 15.8152 5.12051 16.0081 4.92762C16.201 4.73472 16.354 4.50573 16.4584 4.2537C16.5628 4.00167 16.6165 3.73155 16.6165 3.45876C16.6165 3.18597 16.5628 2.91585 16.4584 2.66382C16.354 2.41179 16.201 2.1828 16.0081 1.9899C15.8152 1.79701 15.5862 1.644 15.3342 1.53961C15.0822 1.43521 14.812 1.38148 14.5393 1.38148C13.9883 1.38148 13.46 1.60034 13.0704 1.9899C12.6808 2.37947 12.462 2.90783 12.462 3.45876C12.462 4.00969 12.6808 4.53805 13.0704 4.92762C13.46 5.31718 13.9883 5.53604 14.5393 5.53604ZM16.6165 14.5376C16.6165 15.0885 16.3977 15.6169 16.0081 16.0064C15.6185 16.396 15.0902 16.6149 14.5393 16.6149C13.9883 16.6149 13.46 16.396 13.0704 16.0064C12.6808 15.6169 12.462 15.0885 12.462 14.5376C12.462 13.9866 12.6808 13.4583 13.0704 13.0687C13.46 12.6792 13.9883 12.4603 14.5393 12.4603C15.0902 12.4603 15.6185 12.6792 16.0081 13.0687C16.3977 13.4583 16.6165 13.9866 16.6165 14.5376Z" fill="#E8F1F2"/>
</svg>
