<svg width="14" height="16" viewBox="0 0 14 16" fill="none" xmlns="http://www.w3.org/2000/svg">
<path fill-rule="evenodd" clip-rule="evenodd" d="M2.05775 6.11553C1.8939 6.11553 1.73677 6.18061 1.62091 6.29647C1.50505 6.41233 1.43997 6.56946 1.43997 6.73331V14.1467C1.43997 14.3105 1.50505 14.4676 1.62091 14.5835C1.73677 14.6994 1.8939 14.7644 2.05775 14.7644H11.9422C12.1061 14.7644 12.2632 14.6994 12.3791 14.5835C12.4949 14.4676 12.56 14.3105 12.56 14.1467V6.73331C12.56 6.56946 12.4949 6.41233 12.3791 6.29647C12.2632 6.18061 12.1061 6.11553 11.9422 6.11553H10.3978C10.2339 6.11553 10.0768 6.05044 9.96093 5.93458C9.84508 5.81873 9.77999 5.66159 9.77999 5.49775C9.77999 5.3339 9.84508 5.17677 9.96093 5.06091C10.0768 4.94506 10.2339 4.87997 10.3978 4.87997H11.9422C12.4338 4.87997 12.9052 5.07523 13.2527 5.4228C13.6003 5.77037 13.7956 6.24177 13.7956 6.73331V14.1467C13.7956 14.6382 13.6003 15.1096 13.2527 15.4572C12.9052 15.8047 12.4338 16 11.9422 16H2.05775C1.56621 16 1.09481 15.8047 0.747237 15.4572C0.399669 15.1096 0.204407 14.6382 0.204407 14.1467V6.73331C0.204407 6.24177 0.399669 5.77037 0.747237 5.4228C1.09481 5.07523 1.56621 4.87997 2.05775 4.87997H3.60219C3.76604 4.87997 3.92317 4.94506 4.03903 5.06091C4.15489 5.17677 4.21997 5.3339 4.21997 5.49775C4.21997 5.66159 4.15489 5.81873 4.03903 5.93458C3.92317 6.05044 3.76604 6.11553 3.60219 6.11553H2.05775ZM6.3822 1.95911L4.61288 3.72843C4.50748 3.82664 4.36808 3.88011 4.22403 3.87757C4.07999 3.87502 3.94256 3.81667 3.84069 3.7148C3.73882 3.61293 3.68047 3.4755 3.67793 3.33146C3.67539 3.18742 3.72885 3.04801 3.82707 2.94261L6.60707 0.162605C6.71132 0.0584836 6.85264 0 6.99998 0C7.14732 0 7.28864 0.0584836 7.39289 0.162605L10.1729 2.94261C10.2711 3.04801 10.3246 3.18742 10.322 3.33146C10.3195 3.4755 10.2611 3.61293 10.1593 3.7148C10.0574 3.81667 9.91997 3.87502 9.77593 3.87757C9.63189 3.88011 9.49248 3.82664 9.38708 3.72843L7.61776 1.95911V10.44C7.61776 10.6038 7.55267 10.761 7.43682 10.8768C7.32096 10.9927 7.16383 11.0578 6.99998 11.0578C6.83614 11.0578 6.679 10.9927 6.56315 10.8768C6.44729 10.761 6.3822 10.6038 6.3822 10.44V1.95911Z" fill="#E8F1F2"/>
</svg>
