<svg width="193" height="122" viewBox="0 0 193 122" fill="none" xmlns="http://www.w3.org/2000/svg">
<path fill-rule="evenodd" clip-rule="evenodd" d="M161.42 68.513C162.095 75.0803 162.809 82.0182 172.027 80.1059L172.03 80.1035C173.921 79.7111 175.821 79.2799 177.664 78.8618C186.249 76.9139 193.591 75.2482 192.962 79.0979C192.199 83.7742 190.413 91.8826 126.519 107.686C126.519 107.686 105.785 112.213 100.206 113.28C100.11 113.299 100.001 113.319 99.8868 113.339C99.7726 113.361 99.6636 113.38 99.5672 113.395C93.9713 114.379 72.96 117.496 72.96 117.496C7.52401 125.378 2.80834 118.46 0.337619 114.376C-1.69545 111.016 5.7595 109.971 14.481 108.749C16.3584 108.486 18.2946 108.215 20.2074 107.91C29.5088 106.432 27.5613 99.7205 25.7175 93.366C25.4207 92.3431 25.1265 91.3295 24.8825 90.3484C23.122 83.2726 19.9841 62.7385 19.1775 53.7351C18.3708 44.7318 25.8058 28.1634 42.9562 16.0769C58.7775 4.92479 75.5626 1.83435 78.0663 1.42376C80.5523 0.922211 97.3425 -2.13627 116.271 2.6506C136.79 7.83822 149.951 20.6352 152.589 29.3017C155.229 37.9707 160.039 58.1999 161.061 65.4085C161.203 66.4081 161.311 67.4558 161.42 68.513Z" fill="#1D9BF0"/>
<path d="M107.422 38.724C106.622 38.2778 105.741 37.994 104.831 37.8889C103.921 37.7839 103 37.8595 102.119 38.1116C101.238 38.3636 100.415 38.7872 99.6982 39.3579C98.9809 39.9287 98.383 40.6355 97.9386 41.438L84.9929 64.7774L77.5839 57.355C76.9406 56.6878 76.1712 56.1556 75.3204 55.7895C74.4697 55.4234 73.5546 55.2307 72.6288 55.2226C71.7029 55.2146 70.7846 55.3913 69.9277 55.7426C69.0707 56.0938 68.2921 56.6125 67.6374 57.2685C66.9826 57.9244 66.4649 58.7043 66.1142 59.5629C65.7636 60.4214 65.5872 61.3413 65.5952 62.2688C65.6033 63.1964 65.7956 64.1131 66.1611 64.9654C66.5266 65.8177 67.0578 66.5885 67.7238 67.2329L81.6702 81.2045C82.9881 82.5283 84.7663 83.2548 86.6002 83.2548L87.566 83.1849C88.6348 83.0351 89.6544 82.6389 90.5443 82.0273C91.4343 81.4157 92.1704 80.6056 92.6948 79.6606L110.128 48.2246C110.573 47.4229 110.856 46.5411 110.961 45.6297C111.066 44.7183 110.99 43.7952 110.739 42.9129C110.488 42.0307 110.066 41.2067 109.497 40.488C108.927 39.7692 108.223 39.1698 107.422 38.724Z" fill="#090B2D" stroke="#1D9BF0" stroke-width="3"/>
</svg>
