<svg width="20" height="5" viewBox="0 0 20 5" fill="none" xmlns="http://www.w3.org/2000/svg">
<path d="M16.7707 0.354467C17.4335 0.354467 17.983 0.555067 18.4191 0.956268C18.8377 1.37491 19.047 1.8895 19.047 2.50002C19.047 3.11054 18.8377 3.6164 18.4191 4.0176C17.983 4.43625 17.4335 4.64557 16.7707 4.64557C16.1253 4.64557 15.5932 4.43625 15.1746 4.0176C14.7559 3.6164 14.5466 3.11054 14.5466 2.50002C14.5466 1.8895 14.7559 1.37491 15.1746 0.956268C15.5932 0.555068 16.1253 0.354467 16.7707 0.354467Z" fill="#BBBBBB"/>
<path d="M9.97384 0.354467C10.6367 0.354468 11.1862 0.555068 11.6222 0.956268C12.0409 1.37491 12.2502 1.8895 12.2502 2.50002C12.2502 3.11054 12.0409 3.6164 11.6222 4.0176C11.1862 4.43625 10.6367 4.64557 9.97384 4.64557C9.32843 4.64557 8.7964 4.43625 8.37776 4.0176C7.95911 3.6164 7.74979 3.11054 7.74979 2.50002C7.74979 1.8895 7.95911 1.37491 8.37776 0.956268C8.7964 0.555068 9.32843 0.354467 9.97384 0.354467Z" fill="#BBBBBB"/>
<path d="M3.177 0.354467C3.83986 0.354467 4.38933 0.555068 4.82541 0.956268C5.24406 1.37491 5.45338 1.8895 5.45338 2.50002C5.45338 3.11054 5.24406 3.6164 4.82541 4.0176C4.38933 4.43625 3.83986 4.64557 3.177 4.64557C2.53159 4.64557 1.99957 4.43625 1.58092 4.0176C1.16228 3.6164 0.952957 3.11054 0.952957 2.50002C0.952957 1.8895 1.16228 1.37491 1.58092 0.956268C1.99957 0.555068 2.53159 0.354467 3.177 0.354467Z" fill="#BBBBBB"/>
</svg>
